<?xml version="1.0" encoding="UTF-8" standalone="no"?>
<!-- Created with Inkscape (http://www.inkscape.org/) -->

<svg
   width="128"
   height="128"
   viewBox="0 0 33.866666 33.866666"
   version="1.1"
   id="svg5"
   xml:space="preserve"
   inkscape:version="1.2.2 (732a01da63, 2022-12-09)"
   sodipodi:docname="icon.svg"
   xmlns:inkscape="http://www.inkscape.org/namespaces/inkscape"
   xmlns:sodipodi="http://sodipodi.sourceforge.net/DTD/sodipodi-0.dtd"
   xmlns="http://www.w3.org/2000/svg"
   xmlns:svg="http://www.w3.org/2000/svg"><sodipodi:namedview
     id="namedview7"
     pagecolor="#ffffff"
     bordercolor="#000000"
     borderopacity="0.25"
     inkscape:showpageshadow="2"
     inkscape:pageopacity="0.0"
     inkscape:pagecheckerboard="0"
     inkscape:deskcolor="#d1d1d1"
     inkscape:document-units="px"
     showgrid="false"
     showguides="false"
     inkscape:zoom="10.61303"
     inkscape:cx="24.262628"
     inkscape:cy="89.27705"
     inkscape:window-width="3840"
     inkscape:window-height="2071"
     inkscape:window-x="-9"
     inkscape:window-y="-9"
     inkscape:window-maximized="1"
     inkscape:current-layer="layer2" /><defs
     id="defs2" /><g
     inkscape:groupmode="layer"
     id="layer2"
     inkscape:label="Background"
     style="display:inline"><rect
       style="display:inline;opacity:1;fill:#125081;fill-opacity:1;stroke:none;stroke-width:0.79375;stroke-linecap:round;stroke-linejoin:round;stroke-dasharray:none;stroke-opacity:1;stop-color:#000000"
       id="rect909"
       width="28.574999"
       height="28.574999"
       x="2.6458335"
       y="2.6458335"
       rx="6.0854163"
       ry="6.0854163" /><circle
       style="opacity:1;fill:#69cddc;fill-opacity:1;stroke:none;stroke-width:0.0264583;stroke-linecap:round;stroke-linejoin:round;stroke-dasharray:none;stroke-opacity:1;stop-color:#000000"
       id="path6592"
       cx="16.933332"
       cy="16.933332"
       inkscape:label="path6592"
       r="12.170833" /></g><g
     inkscape:groupmode="layer"
     id="layer3"
     inkscape:label="Camel"
     style="display:inline"><path
       style="display:inline;opacity:1;fill:#a17844;fill-opacity:1;stroke:none;stroke-width:0.0264583;stroke-linecap:round;stroke-linejoin:round;stroke-dasharray:none;stroke-opacity:1;stop-color:#000000"
       d="m 25.929166,23.217187 -1.653646,7.606771 h -2.116666 c 0,-0.843255 0.960714,-1.389063 1.455208,-1.389063 l 1.190625,-5.291666 c -1.991421,-1.149748 -2.844271,-2.849941 -2.844271,-4.696354 1.962927,0 3.864904,0 3.864904,0 z"
       id="path4185"
       sodipodi:nodetypes="cccccccc" /><path
       style="opacity:1;fill:#a17844;fill-opacity:1;stroke:none;stroke-width:0.0264583;stroke-linecap:round;stroke-linejoin:round;stroke-dasharray:none;stroke-opacity:1;stop-color:#000000"
       d="m 13.824479,19.579166 v 11.244792 h -2.315104 c 0,-0.860969 0.818357,-1.389063 1.322916,-1.389063 v -5.22552 l -1.190625,-4.630209 z"
       id="path4188"
       sodipodi:nodetypes="ccccccc" /><path
       style="opacity:1;fill:#a17844;fill-opacity:1;stroke:none;stroke-width:0.0264583;stroke-linecap:round;stroke-linejoin:round;stroke-dasharray:none;stroke-opacity:1;stop-color:#000000"
       d="m 27.715104,14.750521 c 0.389299,0 1.389062,0.399753 1.389062,1.389062 v 5.093229 h -0.595312 v -5.093229 c 0,-0.395857 -0.405574,-0.661458 -0.79375,-0.661458 z"
       id="path4971"
       sodipodi:nodetypes="ccccccc" /><path
       style="display:inline;opacity:1;fill:#d8a162;fill-opacity:1;stroke:none;stroke-width:0.0264583;stroke-linecap:round;stroke-linejoin:round;stroke-dasharray:none;stroke-opacity:1;stop-color:#000000"
       d="m 3.7041666,11.840104 c 0,-0.489979 0,-0.500783 0,-0.859896 0,-1.6973201 1.3231885,-2.315104 1.8520833,-2.315104 H 6.680729 C 7.4677025,7.9429271 8.3901657,7.8361284 9.3782051,8.3028855 9.8295929,7.9938468 10.332569,7.9920518 10.847916,8.0036457 c 0.0029,0.5505956 -0.273638,1.0673882 -0.529166,1.3229166 0.135637,0.2266511 0.264583,0.6387758 0.264583,0.9921877 v 3.175 c 0,0.657871 0.981578,0.904222 1.389063,0.198437 l 1.984375,-4.233333 h 4.034895 c 0.360646,2.098622 1.753576,2.089559 2.182813,0 h 4.034896 l 0.992187,2.910417 c 0.910055,0.08086 2.645833,0.785618 2.645833,2.315104 v 16.139583 h -2.315104 c 0,-0.602173 0.628426,-1.389063 1.389063,-1.389063 v -5.490104 c -1.752409,-0.878064 -2.513542,-2.695596 -2.513542,-4.497916 h -8.268229 v 11.377083 h -2.319066 c 0,-0.716303 0.726297,-1.389063 1.393024,-1.389063 V 22.092708 L 11.707812,19.777604 C 7.8382484,19.821694 6.8791665,17.084305 6.8791665,15.742708 V 12.038541 L 5.2916666,11.377083 c -0.088751,0.228633 -0.3499323,0.463021 -0.5953125,0.463021 z"
       id="path1018"
       sodipodi:nodetypes="cscccccccccccccccccccccccccscccc" /><path
       style="display:inline;opacity:1;fill:#a07743;fill-opacity:1;stroke:none;stroke-width:0.0264583;stroke-linecap:round;stroke-linejoin:round;stroke-dasharray:none;stroke-opacity:1;stop-color:#000000"
       d="m 13.956771,9.458854 c 0,-2.6072525 4.035031,-2.7113172 4.034895,0 -0.841389,0 -3.285454,0 -4.034895,0 z"
       id="path3381"
       sodipodi:nodetypes="ccc" /><path
       style="display:inline;fill:#a07743;fill-opacity:1;stroke:none;stroke-width:0.0264583;stroke-linecap:round;stroke-linejoin:round;stroke-dasharray:none;stroke-opacity:1;stop-color:#000000"
       d="m 20.174479,9.458854 c 0,-2.6072525 4.035032,-2.7113172 4.034896,0 z"
       id="path3381-3"
       sodipodi:nodetypes="ccc" /><circle
       style="opacity:1;fill:#a17844;fill-opacity:1;stroke:none;stroke-width:0.0264583;stroke-linecap:round;stroke-linejoin:round;stroke-dasharray:none;stroke-opacity:1;stop-color:#000000"
       id="path5026"
       cx="7.7652235"
       cy="9.5236368"
       r="0.46302083" /></g><g
     inkscape:groupmode="layer"
     id="layer4"
     inkscape:label="Letter"><path
       style="opacity:1;fill:#fffffb;fill-opacity:1;stroke:none;stroke-width:0.0264583;stroke-linecap:round;stroke-linejoin:round;stroke-dasharray:none;stroke-opacity:1;stop-color:#000000"
       d="m 14.2875,12.435416 h 6.482291 l 2.910417,2.910417 v 8.334375 c 0,0.297627 -0.251998,0.529167 -0.529167,0.529167 H 14.2875 c -0.267502,0 -0.529167,-0.249425 -0.529167,-0.529167 V 12.964583 c 0,-0.284754 0.255192,-0.529167 0.529167,-0.529167 z"
       id="path6719"
       sodipodi:nodetypes="ccccccccc" /><path
       style="opacity:1;fill:#dee0df;fill-opacity:1;stroke:none;stroke-width:0.0264583;stroke-linecap:round;stroke-linejoin:round;stroke-dasharray:none;stroke-opacity:1;stop-color:#000000"
       d="m 20.769791,12.435416 v 2.910417 h 2.910417 z"
       id="path7315"
       sodipodi:nodetypes="cccc" /><rect
       style="opacity:1;fill:#a0a6a6;fill-opacity:1;stroke:none;stroke-width:0.0264583;stroke-linecap:round;stroke-linejoin:round;stroke-dasharray:none;stroke-opacity:1;stop-color:#000000"
       id="rect7317"
       width="6.4822917"
       height="0.52916664"
       x="15.478125"
       y="17.072918" /><rect
       style="fill:#a0a6a6;fill-opacity:1;stroke:none;stroke-width:0.0264583;stroke-linecap:round;stroke-linejoin:round;stroke-dasharray:none;stroke-opacity:1;stop-color:#000000"
       id="rect7317-5"
       width="6.4822917"
       height="0.52916664"
       x="15.478125"
       y="18.967869" /><rect
       style="fill:#a0a6a6;fill-opacity:1;stroke:none;stroke-width:0.0264583;stroke-linecap:round;stroke-linejoin:round;stroke-dasharray:none;stroke-opacity:1;stop-color:#000000"
       id="rect7317-52"
       width="4.4979167"
       height="0.52916664"
       x="15.478125"
       y="20.86282" /></g><g
     inkscape:groupmode="layer"
     id="layer2-2"
     inkscape:label="Box"
     transform="translate(22.835897,6.3358973)"
     style="display:inline"><rect
       style="opacity:1;fill:none;stroke:#69cddc;stroke-width:0.79375;stroke-linecap:round;stroke-linejoin:round;stroke-dasharray:none;stroke-opacity:1;stop-color:#000000"
       id="rect909-0"
       width="28.574999"
       height="28.574999"
       x="-20.190063"
       y="-3.6900637"
       rx="6.0854163"
       ry="6.0854163" /></g></svg>
